<mxfile host="65bd71144e">
    <diagram id="C5RBs43oDa-KdzZeNtuy" name="Page-1">
        <mxGraphModel dx="640" dy="180" grid="1" gridSize="10" guides="1" tooltips="1" connect="1" arrows="1" fold="1" page="1" pageScale="1" pageWidth="827" pageHeight="1169" math="0" shadow="0">
            <root>
                <mxCell id="WIyWlLk6GJQsqaUBKTNV-0"/>
                <mxCell id="WIyWlLk6GJQsqaUBKTNV-1" parent="WIyWlLk6GJQsqaUBKTNV-0"/>
                <mxCell id="ihvjl12FiTxaNbeI2KgN-3" value="" style="edgeStyle=orthogonalEdgeStyle;rounded=0;orthogonalLoop=1;jettySize=auto;html=1;" parent="WIyWlLk6GJQsqaUBKTNV-1" target="yvqbhTdAx37guCkJmxYi-4" edge="1">
                    <mxGeometry relative="1" as="geometry">
                        <mxPoint x="385.5999999999999" y="565" as="sourcePoint"/>
                    </mxGeometry>
                </mxCell>
                <mxCell id="ihvjl12FiTxaNbeI2KgN-0" value="" style="edgeStyle=orthogonalEdgeStyle;rounded=0;orthogonalLoop=1;jettySize=auto;html=1;" parent="WIyWlLk6GJQsqaUBKTNV-1" source="KMKfVXiV_VwUEPasHQtb-0" target="lBCfQ0YfBoymbi7UqcTe-0" edge="1">
                    <mxGeometry relative="1" as="geometry"/>
                </mxCell>
                <mxCell id="KMKfVXiV_VwUEPasHQtb-0" value="начало" style="ellipse;whiteSpace=wrap;html=1;fontColor=#000000;fillColor=#FFFFFF;" parent="WIyWlLk6GJQsqaUBKTNV-1" vertex="1">
                    <mxGeometry x="340.64" y="84" width="90" height="50" as="geometry"/>
                </mxCell>
                <mxCell id="KMKfVXiV_VwUEPasHQtb-1" value="конец" style="ellipse;whiteSpace=wrap;html=1;fontColor=#000000;fillColor=#FFFFFF;" parent="WIyWlLk6GJQsqaUBKTNV-1" vertex="1">
                    <mxGeometry x="693.82" y="857.5" width="90" height="50" as="geometry"/>
                </mxCell>
                <mxCell id="e6qk9Nju9v2sVUpgBLXE-1" style="edgeStyle=orthogonalEdgeStyle;rounded=0;orthogonalLoop=1;jettySize=auto;html=1;" parent="WIyWlLk6GJQsqaUBKTNV-1" source="jbSXU8owo1bJoDgqIZQ3-8" edge="1">
                    <mxGeometry relative="1" as="geometry">
                        <mxPoint x="87" y="700" as="targetPoint"/>
                        <Array as="points">
                            <mxPoint x="87" y="645"/>
                        </Array>
                    </mxGeometry>
                </mxCell>
                <mxCell id="e6qk9Nju9v2sVUpgBLXE-8" style="edgeStyle=orthogonalEdgeStyle;rounded=0;orthogonalLoop=1;jettySize=auto;html=1;" parent="WIyWlLk6GJQsqaUBKTNV-1" source="jbSXU8owo1bJoDgqIZQ3-8" edge="1">
                    <mxGeometry relative="1" as="geometry">
                        <mxPoint x="290" y="740" as="targetPoint"/>
                        <Array as="points">
                            <mxPoint x="186" y="740"/>
                            <mxPoint x="220" y="740"/>
                        </Array>
                    </mxGeometry>
                </mxCell>
                <mxCell id="jbSXU8owo1bJoDgqIZQ3-8" value="&lt;font style=&quot;vertical-align: inherit&quot;&gt;&lt;font style=&quot;vertical-align: inherit&quot;&gt;&lt;font color=&quot;#000000&quot;&gt;&lt;br&gt;J &amp;lt; количества&amp;nbsp;&lt;br&gt;столбцов матрицы&lt;br&gt;matrixInput[,]&lt;br&gt;&amp;nbsp;&lt;/font&gt;&lt;br&gt;&lt;/font&gt;&lt;/font&gt;" style="rhombus;whiteSpace=wrap;html=1;shadow=0;fontFamily=Helvetica;fontSize=12;align=center;strokeWidth=1;spacing=6;spacingTop=-4;fillColor=#FFFFFF;" parent="WIyWlLk6GJQsqaUBKTNV-1" vertex="1">
                    <mxGeometry x="106.53" y="595" width="159.11" height="100" as="geometry"/>
                </mxCell>
                <mxCell id="jbSXU8owo1bJoDgqIZQ3-89" value="No" style="text;html=1;align=center;verticalAlign=middle;resizable=0;points=[];autosize=1;strokeColor=none;fillColor=none;" parent="WIyWlLk6GJQsqaUBKTNV-1" vertex="1">
                    <mxGeometry x="459.82000000000005" y="615" width="30" height="20" as="geometry"/>
                </mxCell>
                <mxCell id="jbSXU8owo1bJoDgqIZQ3-90" value="Yes" style="text;html=1;align=center;verticalAlign=middle;resizable=0;points=[];autosize=1;strokeColor=none;fillColor=none;" parent="WIyWlLk6GJQsqaUBKTNV-1" vertex="1">
                    <mxGeometry x="326.47" y="967" width="30" height="20" as="geometry"/>
                </mxCell>
                <mxCell id="ihvjl12FiTxaNbeI2KgN-5" value="" style="edgeStyle=orthogonalEdgeStyle;rounded=0;orthogonalLoop=1;jettySize=auto;html=1;" parent="WIyWlLk6GJQsqaUBKTNV-1" source="yvqbhTdAx37guCkJmxYi-4" target="jbSXU8owo1bJoDgqIZQ3-8" edge="1">
                    <mxGeometry relative="1" as="geometry"/>
                </mxCell>
                <mxCell id="VIec33F67bFmTqAhXJMC-25" style="edgeStyle=orthogonalEdgeStyle;rounded=0;orthogonalLoop=1;jettySize=auto;html=1;" parent="WIyWlLk6GJQsqaUBKTNV-1" source="yvqbhTdAx37guCkJmxYi-4" edge="1">
                    <mxGeometry relative="1" as="geometry">
                        <mxPoint x="510" y="645" as="targetPoint"/>
                    </mxGeometry>
                </mxCell>
                <mxCell id="yvqbhTdAx37guCkJmxYi-4" value="&lt;font style=&quot;vertical-align: inherit&quot;&gt;&lt;font style=&quot;vertical-align: inherit&quot;&gt;&lt;font color=&quot;#000000&quot;&gt;i &amp;lt; количества&amp;nbsp;&lt;br&gt;строк матрицы&lt;br&gt;matrixInput[,]&lt;/font&gt;&lt;br&gt;&lt;/font&gt;&lt;/font&gt;" style="rhombus;whiteSpace=wrap;html=1;shadow=0;fontFamily=Helvetica;fontSize=12;align=center;strokeWidth=1;spacing=6;spacingTop=-4;fillColor=#FFFFFF;" parent="WIyWlLk6GJQsqaUBKTNV-1" vertex="1">
                    <mxGeometry x="311.46" y="595" width="148.36" height="100" as="geometry"/>
                </mxCell>
                <mxCell id="e6qk9Nju9v2sVUpgBLXE-9" style="edgeStyle=orthogonalEdgeStyle;rounded=0;orthogonalLoop=1;jettySize=auto;html=1;" parent="WIyWlLk6GJQsqaUBKTNV-1" source="yvqbhTdAx37guCkJmxYi-6" edge="1">
                    <mxGeometry relative="1" as="geometry">
                        <mxPoint x="460" y="650" as="targetPoint"/>
                    </mxGeometry>
                </mxCell>
                <mxCell id="yvqbhTdAx37guCkJmxYi-6" value="i = i + 1" style="rounded=1;whiteSpace=wrap;html=1;" parent="WIyWlLk6GJQsqaUBKTNV-1" vertex="1">
                    <mxGeometry x="294" y="720" width="120" height="40" as="geometry"/>
                </mxCell>
                <mxCell id="yvqbhTdAx37guCkJmxYi-13" value="No" style="text;html=1;align=center;verticalAlign=middle;resizable=0;points=[];autosize=1;strokeColor=none;fillColor=none;" parent="WIyWlLk6GJQsqaUBKTNV-1" vertex="1">
                    <mxGeometry x="494.4699999999999" y="967" width="30" height="20" as="geometry"/>
                </mxCell>
                <mxCell id="yvqbhTdAx37guCkJmxYi-14" value="Yes" style="text;html=1;align=center;verticalAlign=middle;resizable=0;points=[];autosize=1;strokeColor=none;fillColor=none;" parent="WIyWlLk6GJQsqaUBKTNV-1" vertex="1">
                    <mxGeometry x="76.53" y="615" width="30" height="20" as="geometry"/>
                </mxCell>
                <mxCell id="ihvjl12FiTxaNbeI2KgN-16" style="edgeStyle=orthogonalEdgeStyle;rounded=0;orthogonalLoop=1;jettySize=auto;html=1;entryX=1;entryY=0.5;entryDx=0;entryDy=0;" parent="WIyWlLk6GJQsqaUBKTNV-1" edge="1">
                    <mxGeometry relative="1" as="geometry">
                        <mxPoint x="329.03" y="750" as="sourcePoint"/>
                    </mxGeometry>
                </mxCell>
                <mxCell id="ihvjl12FiTxaNbeI2KgN-34" value="" style="edgeStyle=orthogonalEdgeStyle;rounded=0;orthogonalLoop=1;jettySize=auto;html=1;" parent="WIyWlLk6GJQsqaUBKTNV-1" edge="1">
                    <mxGeometry relative="1" as="geometry">
                        <mxPoint x="434.03" y="750" as="sourcePoint"/>
                    </mxGeometry>
                </mxCell>
                <mxCell id="e6qk9Nju9v2sVUpgBLXE-7" style="edgeStyle=orthogonalEdgeStyle;rounded=0;orthogonalLoop=1;jettySize=auto;html=1;" parent="WIyWlLk6GJQsqaUBKTNV-1" source="KW_vQVSKnFb7htBr6eyI-2" edge="1">
                    <mxGeometry relative="1" as="geometry">
                        <mxPoint x="270" y="650" as="targetPoint"/>
                    </mxGeometry>
                </mxCell>
                <mxCell id="KW_vQVSKnFb7htBr6eyI-2" value="J = J + 1" style="rounded=1;whiteSpace=wrap;html=1;" parent="WIyWlLk6GJQsqaUBKTNV-1" vertex="1">
                    <mxGeometry x="33.75" y="915" width="108.14" height="40" as="geometry"/>
                </mxCell>
                <mxCell id="KW_vQVSKnFb7htBr6eyI-6" value="No" style="text;html=1;align=center;verticalAlign=middle;resizable=0;points=[];autosize=1;strokeColor=none;fillColor=none;" parent="WIyWlLk6GJQsqaUBKTNV-1" vertex="1">
                    <mxGeometry x="190" y="695" width="30" height="20" as="geometry"/>
                </mxCell>
                <mxCell id="KW_vQVSKnFb7htBr6eyI-24" value="Yes" style="text;html=1;align=center;verticalAlign=middle;resizable=0;points=[];autosize=1;strokeColor=none;fillColor=none;" parent="WIyWlLk6GJQsqaUBKTNV-1" vertex="1">
                    <mxGeometry x="280" y="615" width="30" height="20" as="geometry"/>
                </mxCell>
                <mxCell id="ihvjl12FiTxaNbeI2KgN-1" value="" style="edgeStyle=orthogonalEdgeStyle;rounded=0;orthogonalLoop=1;jettySize=auto;html=1;" parent="WIyWlLk6GJQsqaUBKTNV-1" source="lBCfQ0YfBoymbi7UqcTe-0" edge="1">
                    <mxGeometry relative="1" as="geometry">
                        <mxPoint x="385.5999999999999" y="320" as="targetPoint"/>
                    </mxGeometry>
                </mxCell>
                <mxCell id="lBCfQ0YfBoymbi7UqcTe-0" value="Ввод с консоли или явно числа&lt;br&gt;строк (numberString) и числа &lt;br&gt;столбцов (numberColumns) &lt;br&gt;входного массива&lt;br&gt;matrixInput[,] и заполнение&lt;br&gt;его случайными числами от 1 до 150" style="shape=parallelogram;perimeter=parallelogramPerimeter;whiteSpace=wrap;html=1;fixedSize=1;" parent="WIyWlLk6GJQsqaUBKTNV-1" vertex="1">
                    <mxGeometry x="255.64" y="170" width="260" height="120" as="geometry"/>
                </mxCell>
                <mxCell id="e6qk9Nju9v2sVUpgBLXE-5" value="" style="edgeStyle=orthogonalEdgeStyle;rounded=0;orthogonalLoop=1;jettySize=auto;html=1;" parent="WIyWlLk6GJQsqaUBKTNV-1" source="lBCfQ0YfBoymbi7UqcTe-4" target="KW_vQVSKnFb7htBr6eyI-2" edge="1">
                    <mxGeometry relative="1" as="geometry"/>
                </mxCell>
                <mxCell id="lBCfQ0YfBoymbi7UqcTe-4" value="coordinate[0] = i&lt;br&gt;coordinate[1] = J&lt;br&gt;coordinate[2] = matrixInput[i,J]" style="rounded=1;whiteSpace=wrap;html=1;" parent="WIyWlLk6GJQsqaUBKTNV-1" vertex="1">
                    <mxGeometry x="30.64" y="822.5" width="114.36" height="60" as="geometry"/>
                </mxCell>
                <mxCell id="e6qk9Nju9v2sVUpgBLXE-28" value="" style="edgeStyle=orthogonalEdgeStyle;rounded=0;orthogonalLoop=1;jettySize=auto;html=1;" parent="WIyWlLk6GJQsqaUBKTNV-1" source="lBCfQ0YfBoymbi7UqcTe-8" target="e6qk9Nju9v2sVUpgBLXE-25" edge="1">
                    <mxGeometry relative="1" as="geometry"/>
                </mxCell>
                <mxCell id="lBCfQ0YfBoymbi7UqcTe-8" value="matrixCreate[K,L]&amp;nbsp;= matrixInput[i,J]&lt;br&gt;L = L + 1" style="rounded=1;whiteSpace=wrap;html=1;" parent="WIyWlLk6GJQsqaUBKTNV-1" vertex="1">
                    <mxGeometry x="480.79" y="1103" width="120" height="47.5" as="geometry"/>
                </mxCell>
                <mxCell id="e6qk9Nju9v2sVUpgBLXE-16" value="" style="edgeStyle=orthogonalEdgeStyle;rounded=0;orthogonalLoop=1;jettySize=auto;html=1;" parent="WIyWlLk6GJQsqaUBKTNV-1" source="lBCfQ0YfBoymbi7UqcTe-10" target="e6qk9Nju9v2sVUpgBLXE-15" edge="1">
                    <mxGeometry relative="1" as="geometry"/>
                </mxCell>
                <mxCell id="lBCfQ0YfBoymbi7UqcTe-10" value="&lt;font style=&quot;vertical-align: inherit&quot;&gt;&lt;font style=&quot;vertical-align: inherit&quot;&gt;&lt;font color=&quot;#000000&quot;&gt;&lt;br&gt;i =/= coordinate[0]&lt;br&gt;&amp;nbsp;&lt;/font&gt;&lt;br&gt;&lt;/font&gt;&lt;/font&gt;" style="rhombus;whiteSpace=wrap;html=1;shadow=0;fontFamily=Helvetica;fontSize=12;align=center;strokeWidth=1;spacing=6;spacingTop=-4;fillColor=#FFFFFF;" parent="WIyWlLk6GJQsqaUBKTNV-1" vertex="1">
                    <mxGeometry x="364.52" y="955" width="122.59" height="65" as="geometry"/>
                </mxCell>
                <mxCell id="VIec33F67bFmTqAhXJMC-20" style="edgeStyle=orthogonalEdgeStyle;rounded=0;orthogonalLoop=1;jettySize=auto;html=1;entryX=0;entryY=0.5;entryDx=0;entryDy=0;" parent="WIyWlLk6GJQsqaUBKTNV-1" target="e6qk9Nju9v2sVUpgBLXE-23" edge="1">
                    <mxGeometry relative="1" as="geometry">
                        <mxPoint x="520" y="987" as="targetPoint"/>
                        <mxPoint x="489.82000000000005" y="987" as="sourcePoint"/>
                    </mxGeometry>
                </mxCell>
                <mxCell id="lBCfQ0YfBoymbi7UqcTe-18" value="Yes" style="text;html=1;align=center;verticalAlign=middle;resizable=0;points=[];autosize=1;strokeColor=none;fillColor=none;" parent="WIyWlLk6GJQsqaUBKTNV-1" vertex="1">
                    <mxGeometry x="450.79" y="1103" width="30" height="20" as="geometry"/>
                </mxCell>
                <mxCell id="VIec33F67bFmTqAhXJMC-3" value="" style="edgeStyle=orthogonalEdgeStyle;rounded=0;orthogonalLoop=1;jettySize=auto;html=1;" parent="WIyWlLk6GJQsqaUBKTNV-1" source="VIec33F67bFmTqAhXJMC-0" target="VIec33F67bFmTqAhXJMC-2" edge="1">
                    <mxGeometry relative="1" as="geometry"/>
                </mxCell>
                <mxCell id="VIec33F67bFmTqAhXJMC-0" value="&lt;span style=&quot;color: rgb(0 , 0 , 0) ; font-family: &amp;quot;helvetica&amp;quot; ; font-size: 12px ; font-style: normal ; font-weight: 400 ; letter-spacing: normal ; text-align: center ; text-indent: 0px ; text-transform: none ; word-spacing: 0px ; background-color: rgb(248 , 249 , 250) ; display: inline ; float: none&quot;&gt;Print&amp;nbsp;&lt;br&gt;&lt;span style=&quot;font-family: Helvetica;&quot;&gt;matrixIntput[,]&lt;/span&gt;&lt;br&gt;&lt;/span&gt;" style="shape=parallelogram;perimeter=parallelogramPerimeter;whiteSpace=wrap;html=1;fixedSize=1;" parent="WIyWlLk6GJQsqaUBKTNV-1" vertex="1">
                    <mxGeometry x="301.47" y="320" width="170" height="60" as="geometry"/>
                </mxCell>
                <mxCell id="VIec33F67bFmTqAhXJMC-1" value="coordinate[2]&amp;nbsp;= matrixInput[0,0]&lt;br&gt;&amp;nbsp;&amp;nbsp;i = 0, J = 0&amp;nbsp;" style="rounded=1;whiteSpace=wrap;html=1;" parent="WIyWlLk6GJQsqaUBKTNV-1" vertex="1">
                    <mxGeometry x="326.47" y="510" width="120" height="50" as="geometry"/>
                </mxCell>
                <mxCell id="VIec33F67bFmTqAhXJMC-4" value="" style="edgeStyle=orthogonalEdgeStyle;rounded=0;orthogonalLoop=1;jettySize=auto;html=1;" parent="WIyWlLk6GJQsqaUBKTNV-1" source="VIec33F67bFmTqAhXJMC-2" target="VIec33F67bFmTqAhXJMC-1" edge="1">
                    <mxGeometry relative="1" as="geometry"/>
                </mxCell>
                <mxCell id="VIec33F67bFmTqAhXJMC-2" value="&lt;br&gt;Создание одномерного массива coordinate[] с координатами наименьшего значения и заполнение его 0,&lt;br&gt;&amp;nbsp;" style="rounded=1;whiteSpace=wrap;html=1;" parent="WIyWlLk6GJQsqaUBKTNV-1" vertex="1">
                    <mxGeometry x="315.64" y="410" width="140" height="70" as="geometry"/>
                </mxCell>
                <mxCell id="VIec33F67bFmTqAhXJMC-15" style="edgeStyle=orthogonalEdgeStyle;rounded=0;orthogonalLoop=1;jettySize=auto;html=1;" parent="WIyWlLk6GJQsqaUBKTNV-1" edge="1">
                    <mxGeometry relative="1" as="geometry">
                        <mxPoint x="564" y="882.5" as="targetPoint"/>
                        <mxPoint x="502.5899999999999" y="882.5" as="sourcePoint"/>
                    </mxGeometry>
                </mxCell>
                <mxCell id="VIec33F67bFmTqAhXJMC-9" value="Yes" style="text;html=1;align=center;verticalAlign=middle;resizable=0;points=[];autosize=1;strokeColor=none;fillColor=none;" parent="WIyWlLk6GJQsqaUBKTNV-1" vertex="1">
                    <mxGeometry x="393.05" y="932.5" width="30" height="20" as="geometry"/>
                </mxCell>
                <mxCell id="VIec33F67bFmTqAhXJMC-12" value="No" style="text;html=1;align=center;verticalAlign=middle;resizable=0;points=[];autosize=1;strokeColor=none;fillColor=none;" parent="WIyWlLk6GJQsqaUBKTNV-1" vertex="1">
                    <mxGeometry x="512.72" y="862.5" width="30" height="20" as="geometry"/>
                </mxCell>
                <mxCell id="e6qk9Nju9v2sVUpgBLXE-11" value="" style="edgeStyle=orthogonalEdgeStyle;rounded=0;orthogonalLoop=1;jettySize=auto;html=1;" parent="WIyWlLk6GJQsqaUBKTNV-1" source="VIec33F67bFmTqAhXJMC-23" target="e6qk9Nju9v2sVUpgBLXE-10" edge="1">
                    <mxGeometry relative="1" as="geometry"/>
                </mxCell>
                <mxCell id="VIec33F67bFmTqAhXJMC-23" value="&lt;span style=&quot;color: rgb(0 , 0 , 0) ; font-family: &amp;quot;helvetica&amp;quot; ; font-size: 12px ; font-style: normal ; font-weight: 400 ; letter-spacing: normal ; text-align: center ; text-indent: 0px ; text-transform: none ; word-spacing: 0px ; background-color: rgb(248 , 249 , 250) ; display: inline ; float: none&quot;&gt;Вывод координат&amp;nbsp;&lt;br&gt;&lt;span style=&quot;font-family: Helvetica;&quot;&gt;coordinate[]&lt;/span&gt;&lt;br&gt;наименьшего элемента&lt;br&gt;массива&amp;nbsp;&lt;span style=&quot;font-family: Helvetica;&quot;&gt;matrixIntput&lt;br&gt;&lt;/span&gt;&lt;br&gt;&lt;/span&gt;" style="shape=parallelogram;perimeter=parallelogramPerimeter;whiteSpace=wrap;html=1;fixedSize=1;" parent="WIyWlLk6GJQsqaUBKTNV-1" vertex="1">
                    <mxGeometry x="500" y="597.5" width="185.44" height="95" as="geometry"/>
                </mxCell>
                <mxCell id="e6qk9Nju9v2sVUpgBLXE-2" value="" style="edgeStyle=orthogonalEdgeStyle;rounded=0;orthogonalLoop=1;jettySize=auto;html=1;" parent="WIyWlLk6GJQsqaUBKTNV-1" source="e6qk9Nju9v2sVUpgBLXE-0" target="lBCfQ0YfBoymbi7UqcTe-4" edge="1">
                    <mxGeometry relative="1" as="geometry"/>
                </mxCell>
                <mxCell id="e6qk9Nju9v2sVUpgBLXE-4" style="edgeStyle=orthogonalEdgeStyle;rounded=0;orthogonalLoop=1;jettySize=auto;html=1;" parent="WIyWlLk6GJQsqaUBKTNV-1" source="e6qk9Nju9v2sVUpgBLXE-0" edge="1">
                    <mxGeometry relative="1" as="geometry">
                        <mxPoint x="30" y="940" as="targetPoint"/>
                        <Array as="points">
                            <mxPoint x="10" y="740"/>
                            <mxPoint x="10" y="940"/>
                        </Array>
                    </mxGeometry>
                </mxCell>
                <mxCell id="e6qk9Nju9v2sVUpgBLXE-0" value="&lt;font style=&quot;vertical-align: inherit&quot;&gt;&lt;font style=&quot;vertical-align: inherit&quot;&gt;&lt;font color=&quot;#000000&quot;&gt;&lt;br&gt;matrixInput[i,J] &amp;lt;&lt;br&gt;&amp;nbsp;coordinate[2]&lt;/font&gt;&lt;br&gt;&lt;/font&gt;&lt;/font&gt;" style="rhombus;whiteSpace=wrap;html=1;shadow=0;fontFamily=Helvetica;fontSize=12;align=center;strokeWidth=1;spacing=6;spacingTop=-4;fillColor=#FFFFFF;" parent="WIyWlLk6GJQsqaUBKTNV-1" vertex="1">
                    <mxGeometry x="18.14" y="700" width="139.36" height="80" as="geometry"/>
                </mxCell>
                <mxCell id="e6qk9Nju9v2sVUpgBLXE-3" value="Yes" style="text;html=1;align=center;verticalAlign=middle;resizable=0;points=[];autosize=1;strokeColor=none;fillColor=none;" parent="WIyWlLk6GJQsqaUBKTNV-1" vertex="1">
                    <mxGeometry x="90" y="785" width="30" height="20" as="geometry"/>
                </mxCell>
                <mxCell id="e6qk9Nju9v2sVUpgBLXE-6" value="No" style="text;html=1;align=center;verticalAlign=middle;resizable=0;points=[];autosize=1;strokeColor=none;fillColor=none;" parent="WIyWlLk6GJQsqaUBKTNV-1" vertex="1">
                    <mxGeometry x="10" y="710" width="30" height="20" as="geometry"/>
                </mxCell>
                <mxCell id="e6qk9Nju9v2sVUpgBLXE-20" style="edgeStyle=orthogonalEdgeStyle;rounded=0;orthogonalLoop=1;jettySize=auto;html=1;" parent="WIyWlLk6GJQsqaUBKTNV-1" source="e6qk9Nju9v2sVUpgBLXE-10" edge="1">
                    <mxGeometry relative="1" as="geometry">
                        <mxPoint x="430" y="790" as="targetPoint"/>
                        <Array as="points">
                            <mxPoint x="430" y="770"/>
                        </Array>
                    </mxGeometry>
                </mxCell>
                <mxCell id="e6qk9Nju9v2sVUpgBLXE-10" value="&lt;span style=&quot;&quot;&gt;Создание массива&lt;/span&gt;&lt;br style=&quot;&quot;&gt;&lt;span style=&quot;&quot;&gt;matrixCreate&lt;br&gt;[&lt;/span&gt;numberString-1,&lt;span style=&quot;&quot;&gt;&lt;br&gt;,&lt;/span&gt;numberColumns-1&lt;span style=&quot;&quot;&gt;] и заполнение его 0&lt;/span&gt;" style="rounded=1;whiteSpace=wrap;html=1;" parent="WIyWlLk6GJQsqaUBKTNV-1" vertex="1">
                    <mxGeometry x="512.72" y="730" width="160" height="80" as="geometry"/>
                </mxCell>
                <mxCell id="e6qk9Nju9v2sVUpgBLXE-14" value="" style="edgeStyle=orthogonalEdgeStyle;rounded=0;orthogonalLoop=1;jettySize=auto;html=1;entryX=0.5;entryY=0;entryDx=0;entryDy=0;" parent="WIyWlLk6GJQsqaUBKTNV-1" source="e6qk9Nju9v2sVUpgBLXE-12" target="lBCfQ0YfBoymbi7UqcTe-10" edge="1">
                    <mxGeometry relative="1" as="geometry">
                        <mxPoint x="295" y="1031" as="targetPoint"/>
                    </mxGeometry>
                </mxCell>
                <mxCell id="e6qk9Nju9v2sVUpgBLXE-12" value="&lt;font style=&quot;vertical-align: inherit&quot;&gt;&lt;font style=&quot;vertical-align: inherit&quot;&gt;&lt;font color=&quot;#000000&quot;&gt;i &amp;lt; количества&amp;nbsp;&lt;br&gt;строк матрицы&lt;br&gt;matrixInput[,]&lt;/font&gt;&lt;br&gt;&lt;/font&gt;&lt;/font&gt;" style="rhombus;whiteSpace=wrap;html=1;shadow=0;fontFamily=Helvetica;fontSize=12;align=center;strokeWidth=1;spacing=6;spacingTop=-4;fillColor=#FFFFFF;" parent="WIyWlLk6GJQsqaUBKTNV-1" vertex="1">
                    <mxGeometry x="351.64" y="832.5" width="148.36" height="100" as="geometry"/>
                </mxCell>
                <mxCell id="e6qk9Nju9v2sVUpgBLXE-41" value="" style="edgeStyle=orthogonalEdgeStyle;rounded=0;orthogonalLoop=1;jettySize=auto;html=1;" parent="WIyWlLk6GJQsqaUBKTNV-1" source="e6qk9Nju9v2sVUpgBLXE-15" target="e6qk9Nju9v2sVUpgBLXE-17" edge="1">
                    <mxGeometry relative="1" as="geometry"/>
                </mxCell>
                <mxCell id="e6qk9Nju9v2sVUpgBLXE-15" value="L = 0, J =0" style="rounded=1;whiteSpace=wrap;html=1;" parent="WIyWlLk6GJQsqaUBKTNV-1" vertex="1">
                    <mxGeometry x="237.11" y="974" width="78.53" height="27" as="geometry"/>
                </mxCell>
                <mxCell id="e6qk9Nju9v2sVUpgBLXE-34" style="edgeStyle=orthogonalEdgeStyle;rounded=0;orthogonalLoop=1;jettySize=auto;html=1;" parent="WIyWlLk6GJQsqaUBKTNV-1" source="e6qk9Nju9v2sVUpgBLXE-17" edge="1">
                    <mxGeometry relative="1" as="geometry">
                        <mxPoint x="330" y="1130" as="targetPoint"/>
                        <Array as="points">
                            <mxPoint x="276" y="1130"/>
                        </Array>
                    </mxGeometry>
                </mxCell>
                <mxCell id="e6qk9Nju9v2sVUpgBLXE-35" value="" style="edgeStyle=orthogonalEdgeStyle;rounded=0;orthogonalLoop=1;jettySize=auto;html=1;" parent="WIyWlLk6GJQsqaUBKTNV-1" source="e6qk9Nju9v2sVUpgBLXE-17" target="e6qk9Nju9v2sVUpgBLXE-26" edge="1">
                    <mxGeometry relative="1" as="geometry"/>
                </mxCell>
                <mxCell id="e6qk9Nju9v2sVUpgBLXE-17" value="&lt;font style=&quot;vertical-align: inherit&quot;&gt;&lt;font style=&quot;vertical-align: inherit&quot;&gt;&lt;font color=&quot;#000000&quot;&gt;&lt;br&gt;J &amp;lt; количества&amp;nbsp;&lt;br&gt;столбцов матрицы&lt;br&gt;matrixInput[,]&lt;br&gt;&amp;nbsp;&lt;/font&gt;&lt;br&gt;&lt;/font&gt;&lt;/font&gt;" style="rhombus;whiteSpace=wrap;html=1;shadow=0;fontFamily=Helvetica;fontSize=12;align=center;strokeWidth=1;spacing=6;spacingTop=-4;fillColor=#FFFFFF;" parent="WIyWlLk6GJQsqaUBKTNV-1" vertex="1">
                    <mxGeometry x="196.82000000000002" y="1010" width="159.11" height="100" as="geometry"/>
                </mxCell>
                <mxCell id="e6qk9Nju9v2sVUpgBLXE-27" value="" style="edgeStyle=orthogonalEdgeStyle;rounded=0;orthogonalLoop=1;jettySize=auto;html=1;" parent="WIyWlLk6GJQsqaUBKTNV-1" source="e6qk9Nju9v2sVUpgBLXE-18" target="lBCfQ0YfBoymbi7UqcTe-8" edge="1">
                    <mxGeometry relative="1" as="geometry"/>
                </mxCell>
                <mxCell id="e6qk9Nju9v2sVUpgBLXE-18" value="&lt;font style=&quot;vertical-align: inherit&quot;&gt;&lt;font style=&quot;vertical-align: inherit&quot;&gt;&lt;font color=&quot;#000000&quot;&gt;&lt;br&gt;J =/= coordinate[1]&lt;br&gt;&amp;nbsp;&lt;/font&gt;&lt;br&gt;&lt;/font&gt;&lt;/font&gt;" style="rhombus;whiteSpace=wrap;html=1;shadow=0;fontFamily=Helvetica;fontSize=12;align=center;strokeWidth=1;spacing=6;spacingTop=-4;fillColor=#FFFFFF;" parent="WIyWlLk6GJQsqaUBKTNV-1" vertex="1">
                    <mxGeometry x="331.11999999999995" y="1094.25" width="122.59" height="65" as="geometry"/>
                </mxCell>
                <mxCell id="e6qk9Nju9v2sVUpgBLXE-19" value="K = 0" style="rounded=1;whiteSpace=wrap;html=1;" parent="WIyWlLk6GJQsqaUBKTNV-1" vertex="1">
                    <mxGeometry x="386.55" y="795.5" width="78.53" height="27" as="geometry"/>
                </mxCell>
                <mxCell id="e6qk9Nju9v2sVUpgBLXE-22" value="" style="edgeStyle=orthogonalEdgeStyle;rounded=0;orthogonalLoop=1;jettySize=auto;html=1;" parent="WIyWlLk6GJQsqaUBKTNV-1" source="e6qk9Nju9v2sVUpgBLXE-21" target="KMKfVXiV_VwUEPasHQtb-1" edge="1">
                    <mxGeometry relative="1" as="geometry"/>
                </mxCell>
                <mxCell id="e6qk9Nju9v2sVUpgBLXE-21" value="&lt;span style=&quot;&quot;&gt;Вывод массива&lt;/span&gt;&lt;br style=&quot;&quot;&gt;&lt;span style=&quot;&quot;&gt;matrixCreate[]&amp;nbsp;&lt;/span&gt;" style="shape=parallelogram;perimeter=parallelogramPerimeter;whiteSpace=wrap;html=1;fixedSize=1;" parent="WIyWlLk6GJQsqaUBKTNV-1" vertex="1">
                    <mxGeometry x="555" y="852.5" width="120" height="60" as="geometry"/>
                </mxCell>
                <mxCell id="e6qk9Nju9v2sVUpgBLXE-24" style="edgeStyle=orthogonalEdgeStyle;rounded=0;orthogonalLoop=1;jettySize=auto;html=1;" parent="WIyWlLk6GJQsqaUBKTNV-1" source="e6qk9Nju9v2sVUpgBLXE-23" edge="1">
                    <mxGeometry relative="1" as="geometry">
                        <mxPoint x="430" y="830" as="targetPoint"/>
                        <Array as="points">
                            <mxPoint x="800" y="988"/>
                        </Array>
                    </mxGeometry>
                </mxCell>
                <mxCell id="e6qk9Nju9v2sVUpgBLXE-23" value="i = i + 1" style="rounded=1;whiteSpace=wrap;html=1;" parent="WIyWlLk6GJQsqaUBKTNV-1" vertex="1">
                    <mxGeometry x="530" y="974" width="78.53" height="27" as="geometry"/>
                </mxCell>
                <mxCell id="e6qk9Nju9v2sVUpgBLXE-40" style="edgeStyle=orthogonalEdgeStyle;rounded=0;orthogonalLoop=1;jettySize=auto;html=1;" parent="WIyWlLk6GJQsqaUBKTNV-1" source="e6qk9Nju9v2sVUpgBLXE-25" target="e6qk9Nju9v2sVUpgBLXE-17" edge="1">
                    <mxGeometry relative="1" as="geometry">
                        <mxPoint x="150" y="1010" as="targetPoint"/>
                        <Array as="points">
                            <mxPoint x="669" y="1160"/>
                            <mxPoint x="150" y="1160"/>
                            <mxPoint x="150" y="1060"/>
                        </Array>
                    </mxGeometry>
                </mxCell>
                <mxCell id="e6qk9Nju9v2sVUpgBLXE-25" value="J = J + 1" style="rounded=1;whiteSpace=wrap;html=1;" parent="WIyWlLk6GJQsqaUBKTNV-1" vertex="1">
                    <mxGeometry x="629.5400000000001" y="1113.25" width="78.53" height="27" as="geometry"/>
                </mxCell>
                <mxCell id="e6qk9Nju9v2sVUpgBLXE-37" style="edgeStyle=orthogonalEdgeStyle;rounded=0;orthogonalLoop=1;jettySize=auto;html=1;entryX=0.5;entryY=1;entryDx=0;entryDy=0;" parent="WIyWlLk6GJQsqaUBKTNV-1" source="e6qk9Nju9v2sVUpgBLXE-26" target="e6qk9Nju9v2sVUpgBLXE-23" edge="1">
                    <mxGeometry relative="1" as="geometry">
                        <mxPoint x="570" y="1010" as="targetPoint"/>
                    </mxGeometry>
                </mxCell>
                <mxCell id="e6qk9Nju9v2sVUpgBLXE-26" value="K = K + 1" style="rounded=1;whiteSpace=wrap;html=1;" parent="WIyWlLk6GJQsqaUBKTNV-1" vertex="1">
                    <mxGeometry x="402.26" y="1046.5" width="78.53" height="27" as="geometry"/>
                </mxCell>
                <mxCell id="e6qk9Nju9v2sVUpgBLXE-32" value="Yes" style="text;html=1;align=center;verticalAlign=middle;resizable=0;points=[];autosize=1;strokeColor=none;fillColor=none;" parent="WIyWlLk6GJQsqaUBKTNV-1" vertex="1">
                    <mxGeometry x="250.00000000000006" y="1110" width="30" height="20" as="geometry"/>
                </mxCell>
                <mxCell id="e6qk9Nju9v2sVUpgBLXE-38" value="No" style="text;html=1;align=center;verticalAlign=middle;resizable=0;points=[];autosize=1;strokeColor=none;fillColor=none;" parent="WIyWlLk6GJQsqaUBKTNV-1" vertex="1">
                    <mxGeometry x="363.04999999999995" y="1040" width="30" height="20" as="geometry"/>
                </mxCell>
            </root>
        </mxGraphModel>
    </diagram>
</mxfile>